<?xml version="1.0" encoding="utf-8"?>
<svg viewBox="0 0 448 512" xmlns="http://www.w3.org/2000/svg">
  <path d="M 0 288 C 0 211.7 35.7 128 112 128 C 139.3 128 171.7 138.3 194.7 147.3 C 213.5 154.6 234.6 154.6 253.4 147.3 C 276.3 138.4 308.8 128 336.1 128 C 412.4 128 448.1 211.7 448.1 288 C 448.1 416 368.1 512 288.1 512 C 271.6 512 250 505.4 236.6 500.7 C 228.5 497.9 219.7 497.9 211.6 500.7 C 198.2 505.4 176.6 512 160.1 512 C 80 512 0 416 0 288 Z" style="fill: rgb(238, 62, 62);"/>
  <path d="M 223.268 114.694 C 214.468 114.694 207.268 107.494 207.268 98.694 L 207.268 82.694 C 207.268 38.494 243.068 2.694 287.268 2.694 L 303.268 2.694 C 312.068 2.694 319.268 9.894 319.268 18.694 L 319.268 34.694 C 319.268 78.894 283.468 114.694 239.268 114.694 L 223.268 114.694 Z" style="fill: rgb(33, 167, 0);"/>
</svg>